<?xml version="1.0" encoding="utf-8"?>
<!-- Generator: Adobe Illustrator 27.5.0, SVG Export Plug-In . SVG Version: 6.00 Build 0)  -->
<svg version="1.1" id="Layer_1" xmlns="http://www.w3.org/2000/svg" xmlns:xlink="http://www.w3.org/1999/xlink" x="0px" y="0px"
	 viewBox="0 0 1544.3 836.4" style="enable-background:new 0 0 1544.3 836.4;" xml:space="preserve">
<g>
	<path d="M1146.6,690.5c1.6-7,6.3-11.5,13.1-15.2c-5.9,1-4.9-2.5-4.8-5.5c0.1-2.5-0.1-5-0.1-7.5c0-1,0-2.1,1.2-2.5
		c1.5-0.5,2.2,0.5,2.7,1.6c1.1,2.2,2,4.6,3.1,6.8c1.3,2.8,2.2,5.9,6.4,5.9c3.2,0,0.4,3.6,2.7,4.8c2.4-1.1,2.2-3.9,2.8-6.1
		c0.7-2.8,1.4-5.4,2.9-7.9c2.2-3.5,4.1-2.7,6,0.1c1,1.5,1.7,3.3,2.3,5c1.4,3.7,3.1,7.1,6.8,9.3c3.9,2.4,5.5,6.5,5.9,11
		c0.2,2.6,0.6,5.3,0.7,7.9c0.5,7.2,3.3,13.3,7.5,19.2c4,5.6,5.1,12.6,5.9,19.4c0.5,4.1,1.1,8.3,1.2,12.4c0.2,6.1,1,11.6,7.6,14.3
		c0.8,0.3,1.4,1.4,1.9,2.3c6,12,10.2,24.2,5.6,37.8c-1.3,3.8-2.6,7.6-3.6,11.4c-0.9,3.5-3.1,4.9-6.5,4.9c-4,0-8-0.1-12,0.1
		c-1.5,0.1-4.1-1.1-4.2,1.1c0,2.5,2.8,1.6,4.5,1.7c3.2,0.2,6.3,0.2,9.5,0.2c22.3-0.5,44.4-3.2,66-9c9.6-2.5,17.1-8.7,24.5-14.9
		c1.9-1.6,3.6-3.5,5.6-5c2.8-2.2,5.8-4.3,9.3-1c2.9,2.7,3.3,7.2,0.6,10.9c-6,8-13.5,14.2-22.8,18c-8.2,3.4-16,7.9-25,9.3
		c0.1,0.5,0.2,0.9,0.3,1.4c10.5,0,21,0,31.5,0c35.4,0,70.9,0,106.3,0c42.2,0,84.5,0,126.7,0c0.8,0,1.7,0,2.5,0c1.5,0,3.4-0.1,3.2,2
		c-0.1,1.9-2,1.4-3.2,1.4c-12.5,0.1-25,0.1-37.4,0.1c-64.1,0-128.1-0.1-192.2-0.1c-70.1,0-140.1-0.1-210.2-0.1
		c-77.9,0-155.8,0.2-233.6,0.2c-51.1,0-102.2-0.1-153.3-0.1c-92.3,0-184.7,0-277-0.1c-57.6,0-115.2-0.1-172.8-0.1
		c-85.7,0-171.4,0-257.2,0c-2.6,0-7.5,1.3-7.4-1.4c0.2-3.6,5-1.6,7.6-1.6c44.1-0.2,88.1-0.2,132.2-0.2c35.6,0,71.2,0,106.7,0
		c1.3,0,2.5,0,4.3,0c-2.1-4.5-3.6-8.6-5.7-12.3c-1.8-3.2-1.6-5,2-6.3c1.1-0.4,3.1-1,2.3-2.6c-0.7-1.6-2.3-0.4-3.5,0
		c-5.4,2-11.1,3.7-16.3,6.2c-4.3,2.1-6.3,0.5-8.5-2.8c-17.2-25.9-34.2-51.9-50.3-78.5c-18.5-30.5-35-62.2-52-93.6
		c-14.4-26.6-27.1-54-37.1-82.6c-6.2-17.7-10.8-35.9-15.8-53.9c-3.2-11.5-7.3-22.7-9.5-34.6c-0.7-3.8,0.3-4.4,3.4-4.3
		c0.7,0,1.4,0.1,2,0c1.3-0.4,3.7,0.3,3.6-1.6c-0.1-1.9-2.2-1.3-3.7-1.3c-3.5,0-6.9-0.5-10.4,0.3c-3.6,0.8-4.9-1.5-5.4-4.8
		c-2.3-15.1-3.7-30.3-4.3-45.6c-1.5-37.1-1.2-74.2,1.6-111.2c1.9-25.9,4.9-51.6,7.9-77.4c0.9-8.2,4-16.2,7.2-23.8
		c1.7-3.9,5.7-6.8,8.8-10c4.2-4.3,8.6-8.3,12.9-12.5c3.4-3.3,7.4-6.2,8.1-11.5c0.3-2.1,2.1-3.6,4.3-3.6c3.7,0.1,6-2.1,8.7-4.2
		c13.5-10.6,25.3-23,38.2-34.3c0.7-0.6,1.4-1.9,2.4-1.4c4.8,2.4,5.2-1.8,6.3-4.3c4.5-10.2,2.8-20.1-3.7-28.6
		c-8.1-10.6-7.4-22.1-4.5-33.8c5.2-20.3,15.8-37.2,32.8-49.7c11.5-8.5,24.6-9,38.2-7.3c18.9,2.4,34.4,11.8,48.9,23.4
		c6.2,5,12.5,10,18.8,14.8c4.7,3.6,9.7,6.4,15.9,6.4c1.1,0,2.8-0.1,2.8,1.4c-0.1,1.9-2,1.3-3.2,1.2c-6.4-0.3-11.9-2.8-16.9-6.7
		c-9.8-7.5-19.5-15-29.3-22.4C232.1,7.3,214.6,2.3,195.2,3.1c-10.3,0.4-19.1,4.8-26.5,11.5c-16.2,14.8-24.9,33.5-27.1,55.1
		c-0.6,6.2,1,12.1,4.5,17.5c5.4,8.3,10.2,16.8,7.6,27.5c-1,4.3-2.2,8.4-4.7,12c-1.9,2.7-2.3,4.5,0.1,7.2
		c10.9,12.1,23.6,21.3,39,26.8c1.4,0.5,2.9,0.9,3.1-1c0.3-2.3,3-4.6-0.7-6.9c-6-3.8-9.4-9.7-10.9-16.7c-0.3-1.3-0.8-3,1-3.3
		c1.4-0.3,1.6,1.3,2,2.4c6.7,16.7,19.6,24.1,37.9,21.8c1.4-0.2,3.5-2,4.1,0.6c0.6,2.8-2.1,2.4-3.7,2.7c-7.6,1.4-14.9,0.9-22-2.3
		c-1-0.4-2.1-1.6-3.1-0.4c-0.7,0.8-1.1,2.2-1,3.2c0.1,2,1.9,1.4,3.1,1.5c1.8,0.2,3.3,0.5,4,2.4c4.6,13.8,13.9,24.5,23.3,35
		c3.2,3.5,5.3,7.2,5.6,11.8c0.2,2.8,1.3,4.2,4.4,3.7c2.6-0.4,5.3-0.6,7.9-0.4c4,0.4,3.9-2.5,4.9-4.9c1.3-3.3-1.2-3.7-3.1-4.3
		c-12-3.9-20.1-20.2-19.8-30.4c0.2-5.8,0.9-11.6,3.4-17c1.1-2.5,2.6-5.4-1.7-6.7c-0.7-0.2-1.5-1-1.2-1.9c0.5-1.4,1.7-0.8,2.5-0.6
		c2.3,0.6,3.6-0.4,4.7-2.4c6.2-11.1,12.9-21.8,21.2-31.4c1.5-1.7,1.4-4,1.7-6.2c1-6.5,3.5-12.4,8.6-17c5.6-5.1,13.7-7.1,22.8-1.4
		c-0.2,1.4-1.3,1.3-2.3,1.1c-14.8-3.1-22.7,2.2-25.2,17.1c-1.3,7.7-1.6,15.5,0,23.3c0.9,4.2,2.7,7.8,5.4,11.1
		c0.9,1.1,2.6,2.4,0.6,3.7c-1.6,1.1-2.7-0.4-3.7-1.6c-4.7-6.1-5.8-13.3-6.5-20.6c-0.1-1.7,0.4-3.7-1.5-5.8
		c-6.8,8.9-13.9,17.4-18,27.8c-0.5,1.3,0.4,1.8,1,2.5c1.6,1.9,3.8,2.6,5.9,3.6c1.5,0.7,4.7-0.1,4.3,2.3c-0.4,2.4-3.5,1.9-5.5,2
		c-1.3,0.1-2.8-0.1-3.8-0.8c-4.9-2.8-6.1,0-7.2,4c-1.8,6.8-3.4,13.7-1.7,20.7c2.7,10.7,8.3,19.1,19.5,22.7c3.2,1,6.6,2.1,2.9,6.6
		c-1.5,1.9-1.2,4.8-2.9,6.8c-1.2,1.4,0,2.4,0.8,3.4c3.1,3.9,14.4,7.1,19.3,5.6c3-0.9,1.6-2.6,1-4.2c-4.7-12-4-23.7,1.3-35.3
		c0.5-1.1,1-2.1,1.6-3.1c0.8-1.3,1.4-3.7,3.4-2.5c1.7,1,0,2.6-0.7,3.9c-6.4,12.6-7.6,25.5-1.1,38.3c6.2,12.3,15.7,20.1,30.4,19.2
		c1.2-0.1,2.6-0.6,2.9,0.9c0.3,1.7-1.2,2.2-2.5,2.6c-0.2,0.1-0.3,0.1-0.5,0.1c-7.6-1.6-7.6,2.7-7.1,8.4c0.4,3.9-0.2,8-0.8,11.9
		c-0.5,3,1.4,4,3.3,4.9c13.5,6.5,27.2,12.5,42.5,13c4.9,0.1,8,2,9.2,6.7c1.1,4.1-2,9.4-6.4,11.2c-8.5,3.5-16.8,1.2-24.7-1.7
		c-9.6-3.6-19.6-6.6-28.3-12.3c-1.8-1.2-2.6-0.7-3.4,1.1c-3.4,8-7.2,15.7-11.6,23.2c-1.1,1.9,0,2.2,1.2,2.9c1.9,1.1,3.7,2.2,5.5,3.5
		c12.1,9.3,13.8,17.7,6.3,31.1c-0.9,1.6-1.8,3.1-3.4,5.8c7.5-0.7,14.1,0,20.7,0.6c35.9,3.2,71.9,4.5,107,14.7
		c18.8,5.5,38.6,6.8,57.4,12.6c31.4,9.8,62.8,20,92.4,34.4c32.4,15.8,63.6,33.7,91.5,57.1c16.2,13.6,29.5,29.6,43.2,45.3
		c11.8,13.5,24.3,26.4,35.8,40.2c15.1,18.1,31.8,35,43,56.1c1.8,3.4,2,6.2,0.4,9.8c-5.7,13.2-15.3,23.3-25.1,33.3
		c-19.9,20.2-44.3,33.9-69.1,46.8c-34.2,17.9-69.3,33.8-105.1,48.1c-39.8,15.8-80.3,29.9-121.8,40.9c-2.4,0.6-4.1,1.1-3.9,4.5
		c0.3,3.6-4.4,7-9.9,8.2c-4.1,0.9-5.2-1.9-6.3-4.8c-0.5-1.4-0.9-3.3-2.9-2.7c-2.9,0.8-6.5-0.3-8.4,3.2c-0.2,0.4-0.3,0.9-0.5,1.4
		c-2.7,10.8-8.9,18.3-19.8,21.7c-3.5,1.1-7,2.8-10.7,5.7c250.5,0,499.9,0,750.6,0c-4.7-4.9-8.1-9.4-10.6-14.6
		c-6-12.2-5.1-24.5-1.2-36.9c2.6-8.2,5-16.6,12.9-21.8c1.2-0.8,1.2-2.4,1-3.7c-1.4-10.2,2.2-19.4,5.6-28.6c1.3-3.4,1.9-6.1-1.8-8.4
		c-1.7-1-3.1-2.6-4.3-4.1c-1.9-2.3-3.9-2.7-6.6-1.5c-1.1,0.5-2.6,1.8-3.5,0.1c-1-2,1.1-2.7,2.2-3.2c3-1.4,4-3.3,2.6-6.3
		c-1-2.2-3.3-1.1-4.8-1.9c-1.2-0.6-3.6,0.3-3.3-2c0.3-2,2.5-1.6,3.8-1.2c3.9,1.1,5.7-0.5,6.6-4.1c0.3-1.4,1.4-2.6,2.2-3.8
		c-0.2,1.1-0.5,2.3-0.6,3.4c-0.7,4.2,1.1,7.2,4.5,7.4c3.1,0.2,6.2-2.9,6.4-6.4c0.2-2.7-1-4.9-3.4-6.2
		C1150.7,687,1148.5,688.4,1146.6,690.5z M168.3,468c-1.2,18.1,1.7,41.9,4.6,65.7c4.7,38.6,12.8,76.6,21.5,114.4
		c4.7,20.1,12.1,39.4,18.3,59c9.8,31.1,23.1,60.8,36.5,90.5c2.9,6.4,7.7,9.5,14,11.5c7.5,2.3,15.1,2,22.7,2.6
		c29.1,2.3,58.3,1.3,87-3c40.9-6.3,81.5-14.5,120.9-27.5c35.5-11.7,70.6-24.3,105.1-38.7c30.7-12.8,60.7-27.1,90.1-42.5
		c26.8-14,52.2-29.9,71.9-53.4c5.7-6.8,11.2-13.6,14.4-21.9c0.7-1.7,1.3-3.3,0.1-5.2c-2.5-3.9-4.7-8-7.2-11.9
		c-9.8-15.4-22.4-28.5-34-42.4c-13.5-16.2-28.9-30.9-41.8-47.5c-17.3-22.2-37.6-41-60.4-56.8c-30.9-21.4-63.7-39.8-99.1-52.8
		c-18.9-6.9-37.6-14.1-56.8-20.1c-26.9-8.4-54.8-12.2-82.1-18.7c-34.5-8.2-70.2-8.8-105.5-11.3c-3.4-0.2-6.4,2.8-9,1.7
		c-5.7-2.3-8.6,1.2-12.2,4.1c-5.8,4.8-11.6,9.9-19.6,9.9c-4.1,0-6.2,1.4-7,5.2c-1,4.8-4.2,7.2-8.8,8.4c-7.7,2.1-15.7,2.7-23.6,4
		c-27.5,4.4-53.5-0.6-77.7-13.5C98,360.3,80.4,331,71.5,295.8c-0.4-1.4,0.3-4.1-2.2-3.6c-2.2,0.4-1.2,2.7-0.8,4.2
		c2.4,10.4,5.9,20.4,10.5,30.1c17.8,37.1,47.3,58.9,87.2,67c5.5,1.1,6.8,2.7,5.9,7.9C168.6,421.5,168.7,441.8,168.3,468z
		 M210.9,232.4c0.8,1,1.6,0.5,2.4,0.4c8.2-0.7,13.2,2.1,16.7,9.7c3.9,8.5,4.8,17.3,2.4,26.3c-4.6,16.8-13.1,31.2-26.4,42.5
		c-3.8,3.2-7.8,6.3-12.6,10.1c10,1.4,18.9,2,27.8,1.6c6.7-0.4,10.8,2,13,8.2c1.3,3.7,3.4,3.2,5.1,0.5c3.9-6.2,10.1-7.6,16.6-8.6
		c2-0.3,4.1-0.5,5.8-1.3c3.6-1.9,8.7-1.8,10.4-6.2c2.6-6.6,6.8-12.4,9.6-18.9c6-13.5,12.5-26.8,12.8-42c0.1-6.4-0.9-9.4-6.6-12.2
		c-5.2-2.5-9.2-6.5-12.6-11c-1.8-2.4-3.2-3-6.4-2.6c-9.4,1.2-18.4,0.2-24-9.1c-1.1-1.8-2.6-1.9-4.2-1.8
		C228.5,218.3,218.6,223.1,210.9,232.4z M180.3,249.7c0.3,1.3-0.3,1.8-0.9,2c-11.5,4.3-20.6,12-28.6,21.1
		c-4.5,5.1-8.8,10.5-10.4,17.4c-0.8,3.4-2.4,7.9,2.1,9.7c4.5,1.8,5.9-2.8,7.5-5.6c6.5-11.6,15.2-20.9,26.8-27.5
		c11.7-6.7,19.5-17.4,27.5-27.8c0.6-0.8,1.3-1.8,0.5-2.6c-0.4-0.4-1.6-0.4-2.3-0.2c-4,1-8.1,2-12,3.3c-3.1,1.1-4.5,0.6-5.1-2.9
		c-1.4-8.8-5-16.8-9.5-24.4c-2.7-4.6-4.9-5.1-7.1-0.2c-3.6,7.9-9.5,10.2-17.3,10.2c-0.2,0-0.3,0-0.5,0c-2.4,0.6-5,2.1-7.1,1.7
		c-3.3-0.7-1.5-4.5-2.8-6.7c-0.6-1-0.8-2.3-2.3-2.2c-1.2,0.1-1.8,0.9-2,1.9c-0.8,4.6-2.2,9.2-1.9,13.8c0.4,6-3.4,10.5-4,16
		c-1.9-4.3,0.9-8.1,0.8-12.3c-0.1-7.2,1.3-14.3,3.3-21.1c0.7-2.4,0.7-4.5,0-6.7c-4.3-13.3-9.9-25.6-22.2-33.9
		c-5.4-3.7-14.3-6.2-21.7-4.2c4.3,1.6,8.4,2,11.4,4.9c0.7,0.7,1.6,1.5,1,2.5c-0.7,1.2-1.8,0.4-2.6,0c-2.6-1.1-5.2-2.2-7.8-3.3
		c-0.8-0.3-1.7-0.6-2.1,0.4c-0.4,0.9,0.4,1.5,1.2,1.9c1.9,0.9,4.1,1.7,5.7,3c1.5,1.2,5,1.9,3.6,4.4c-0.9,1.6-3.4-0.7-5.3-1.1
		c-2.1-0.5-4.1-4.5-5.7-2.1c-1.9,2.8,2.5,3.4,4.1,5c2.2,2.3,2.5,2.3-0.7,3.3c-1.9,0.6-0.7,1.4-0.4,2.1c2.1,5.8,6.8,9.1,12.2,11
		c6.6,2.3,11.3,6.4,13.1,13.2c3.3,12.4,6.4,24.9,9.5,37.4c-2.5,0.4-4.6,0.5-6.4,1.1c-2,0.6-5.8,0.2-5.1,3.2c0.6,2.6,3.7,0.2,5.7,0.1
		c0.3,0,0.7-0.1,1-0.1c2.5,0.2,6-1.7,7.2,1.2c1.2,2.8-3,2.8-4.2,4.7c-0.8,1.2-3.4,2.1-1.7,4c1.7,1.8,2.9-0.4,4.1-1.3
		c3.4-2.4,6.7-3.4,10.4-0.3c1.9,1.6,4.2,2.6,6.4,3.8c3,1.6,5.3,1.2,7.9-1.4c4.8-4.8,10.1-9.2,16.1-12.5
		C173,251.4,176.3,249.3,180.3,249.7z M230.9,259.4c-0.3-7.1-1.9-13.4-5.3-19c-4-6.6-13.7-6.5-18.5-0.5c-9.2,11.5-17.3,24.1-30.4,32
		c-10.1,6.1-17.3,15-23.6,24.6c-1.1,1.6-1.8,2.8-0.4,4.9c3.4,4.8,7.1,9.3,11.7,12.9c7.7,6.1,20.6,10.5,31.1,1.7
		c6.4-5.3,13.3-9.9,18.3-16.8C222.5,287,229.9,274.4,230.9,259.4z M394,809.5c-0.6-0.2-0.9-0.4-1.2-0.3c-24.4,4.3-49,6.4-73.8,6.9
		c-1,0-2,0.2-2.9,0.5c-8.7,2.8-17.3,6.9-26.6,1.4c-2.4-1.4-5.8-0.9-5.6,2.8c0.2,3.8-1.7,4.5-4.5,5.1c-6,1.4-11.8,3.2-17.2,6.4
		c9.8,0.4,19.6,0.4,29.3,0.4c30.7,0,61.5,0.1,92.2,0.1c2.5,0,3.6-0.3,1.9-3c-2.9-4.4-1.7-8.4,1.4-12.3
		C389.1,814.8,392.5,813,394,809.5z M264.7,324.3c-5.5,1.2-10.7,2.2-15.8,3.5c-5.3,1.3-7.1,6.7-10.9,9.8c-1,0.8,0.1,2.5,0.5,3.7
		c2.6,8.3,4.2,16.7,4,25.4c-0.1,3.5,1.2,4,4.4,3.9c8.4-0.3,14-5.5,20-10.3c5.2-4.2,5.2-4.2-0.6-7.1c-8-3.9-11-12.8-6.8-20.7
		C260.8,329.8,262.8,327.3,264.7,324.3z M261.9,333.6c4.2-0.7,7-1.3,9.8-1.6c1-0.1,2.5-1.4,3,0.3c0.6,2-1.5,1.9-2.6,2.2
		c-2.9,0.7-5.9,1.1-8.8,1.7c-1.2,0.2-2.3,0.6-2.2,2.2c0.1,1.6,1.3,1.8,2.5,1.7c1.5-0.1,3-0.3,4.5-0.4c2.8,0,5.7-1.3,8.9,0.7
		c-4.1,2.4-8.3,1.6-12.1,2.5c-1.7,0.4-3.5,0.2-3.2,2.7c0.2,2,1.5,2.6,3.4,2.9c3.6,0.5,6.9-0.5,10.3-1.3c1-0.2,2.5-1.3,3.1,0.2
		c0.6,1.9-1.4,1.9-2.5,2.3c-1.6,0.7-3.2,1.1-4.9,1.7c1.8,3,4.9,2.4,6.8,3.9c2.3,1.8,4,0.9,5.6-0.8c5.1-5.4,7.4-12.1,8.6-19.3
		c0.3-1.8,0.1-3.7-1.1-5.3c-3.6-4.6-7.5-8.8-12.6-11.9c-1.9-1.1-3.4-1.1-4.7,0.7C270,323.2,266.4,327.7,261.9,333.6z M391.8,830.8
		c0.7-0.3,1.6-0.6,2.5-1.1c5.1-2.5,10-5.2,15.2-7.5c6.7-3,10.8-8.1,12.5-15.1c0.3-1.2,1.6-2.5,0.5-3.7c-0.9-1-2.2,0-3.3,0.2
		c-4.5,1-9,2.4-13.6,3c-9.8,1.1-13.4,9.4-18.4,15.8C385.1,825.5,388.4,831,391.8,830.8z M327.8,288.4c0.5-2-0.1-3.6-2.3-3.4
		c-2.9,0.3-6.3-4.7-8.8,0.8c-0.8,1.9-2,3.9-4.4,2.8c-2.3-1-1.5-3-0.6-4.7c0.8-1.6,1.2-3.2-1-4.1c-2.2-0.9-1.9,1.2-2.5,2.2
		c-1,1.8-2.4,3-4.4,2.3c-2.6-0.9-1.3-3-0.9-4.7c0.3-1.1,1.3-2.3,0-3.1c-2.4-1.5-4.8-3.4-7.4-3.6c-1.4-0.1-0.9,3.5-1.9,5.1
		c-2.6,4.2-0.7,6.5,3.2,8.4c7,3.5,14.3,6.3,21.6,9c6.3,2.4,6.8,2.1,8.7-4.5C327.4,290,327.6,289.2,327.8,288.4z M170,205.3
		c1.6-2.3,0.5-3.8-0.1-5.3c-6.9-18.4-13.8-36.8-20.7-55.1c-0.4-1.1-0.7-3.3-2.3-2.6c-2.1,0.9-0.8,2.8-0.3,4.3
		c5.2,13.9,10.2,27.8,15.6,41.6C164.4,193.8,166.2,199.7,170,205.3z M202.8,181.9C202.8,181.9,202.8,181.9,202.8,181.9
		c0.2-1.3,0.2-2.7,0.3-4c0-1.4,0.8-3.5-1.3-3.5c-1.7-0.1-1.4,2-1.5,3.2c-1.4,17.2-2.8,34.5-4.1,51.7c-0.1,1.6-0.5,4,1.5,4.2
		c2.3,0.2,1.9-2.2,2-3.8C200.7,213.8,201.7,197.9,202.8,181.9z M140.9,280.7c1.1,0.1,1.6-0.6,2-1.3c1.2-1.8,2.3-3.6,3.5-5.4
		c1.3-1.8,1-2.9-1-3.7c-3.3-1.4-6.7-2.8-8.9-6.1c-0.5-0.8-1.4-1.6-2.5-1c-1.5,0.9-0.5,2.1-0.1,3.1c1.7,4.1,3.5,8.2,5.2,12.3
		C139.5,279.5,139.9,280.4,140.9,280.7z M1175,699.3c0-4.1-3-7-6.8-6.8c-3.3,0.2-6.3,3.8-6.2,7.8c0.1,3.7,1.6,6.4,5.8,6.6
		C1172.2,707,1175.1,704,1175,699.3z M447.9,797.9c-1.8,0.4-3.5,0.9-5.3,1.1c-4.5,0.5-3,3.3-1.7,5.3c1.5,2.3,3.6,0.8,5.3-0.1
		c1.9-1.1,4.9-1.1,4.7-4.4C450.7,798,449.5,797.6,447.9,797.9z"/>
	<path d="M358.9,173.9c3,13.3,8.4,17.4,21.7,16.5c1.3-0.1,2.5-0.1,2.6,1.4c0.1,1.4-1.2,1.9-2.4,2.1c-7.1,1.7-13.6,0.7-18.7-5
		c-3.1-3.5-5.9-7.3-6.5-12.1c-0.5-4.3-2.9-6.1-6.9-7.2c-10.4-2.9-19.4-8.5-27.6-15.5c-5.6-4.8-9.6-11-13.8-17
		c-0.7-0.9-1.4-2.1-0.6-3.2c1-1.5,2.4-0.6,3.6-0.1c13.7,5.7,28,5,42.3,4.6c3.6-0.1,4.5-1.2,3.9-4.8c-2.7-14.8-15.8-28.5-30.5-31.6
		c-9.9-2.1-19.8-4.1-29.9-6.2c0.4-1.9,1.6-2.3,2.6-2.1c13.7,3.2,28.3,2.9,40.7,10.8c10.7,6.9,18.9,15.8,20.7,29.1
		c0.5,3.7,2.1,4,5.4,3.5c26.1-4,50.9-13.2,76.3-19.8c18.3-4.8,37.2-7.4,55.3-13.2c28.3-9.2,57-17.2,85.8-24.6
		c21.1-5.4,42.5-9.7,63.7-14.5c24.7-5.6,49.3-11.5,74.2-15.7c20.5-3.5,41.2-5.8,61.7-9.1c16.9-2.7,33.8-6,50.8-7.9
		c12.6-1.4,25.2-2.3,37.8-2.7c21.8-0.7,43.6-2.2,65.3-3.7c17.7-1.2,35.3,0.1,52.8,1.9c15.4,1.5,30.9,2,46.2,3.6
		c34.8,3.6,69.3,8,103.4,16.7c30,7.6,59,17.8,86.5,31.7c22.8,11.5,43.4,26.5,60,46.3c1.4,1.7,2.9,3.2,4.4,4.7c2.5,2.5,3,5.3,2.1,8.7
		c-1,3.5-2.9,5.9-6.6,6.7c-4.6,0.9-9.2,1-13.9,0.5c-29.6-3.1-59.1-7.4-89-7.7c-28.1-0.3-55.5,3.1-81.4,14.5
		c-21.7,9.6-38.4,24.9-48.2,46.9c-3.4,7.7-4.7,15.8-3.3,23.9c3.3,18.9-4.1,33.8-16.6,46.9c-5.7,6-11.8,11.7-17.8,17.3
		c-2.7,2.5-2.6,3.7,0.6,5.8c19.6,12.6,38.1,26.7,55.4,42.4c7.8,7.1,8.9,12.8,3.4,22c-8.8,14.7-20.7,26.8-33.1,38.4
		c-28.1,26.1-60.1,46.7-94.6,63.3c-19.8,9.6-41.2,13.9-62.5,18.7c-10.5,2.4-21,3.4-31.7,1.5c-8.5-1.5-15.1-5.8-21.1-12.2
		c-11.7-12.5-25.7-22.7-38.1-34.5c-27.9-26.7-58.8-49.5-89.6-72.5c-28.1-21.1-57.6-40.1-86.7-59.7c-18.8-12.6-36.6-26.7-56-38.3
		c-28.2-16.8-56.4-33.4-85.4-48.7c-15.1-8-30-16.6-44.9-25c-2.6-1.5-5.3-2.9-8.4-3c-19.7-0.5-38.5-5.3-57.1-11.4
		c-1.7-0.6-3.5-0.9-5.3-1.3C359.9,173.5,359.6,173.7,358.9,173.9z M662.9,150.6c12.3-3,24.8-2.6,37.2-2.5c39.1,0.3,78.1,3.2,117.1,7
		c37.5,3.6,74.5,10.2,110.8,20.1c39,10.7,77.5,22.9,114.2,40.3c2.7,1.3,3.5,0.4,4.2-2c0.7-2.6,0.1-5.2,1.1-7.8
		c8.5-24,24.7-41.3,47-52.6c23.7-12,49.6-16.7,75.8-17.6c24.2-0.8,48.5,1.3,72.7,4.5c12.7,1.7,25.3,4.4,38.2,3.5
		c2.6-0.2,5.8,0.2,7-2.8c1.3-3.2,0.7-6.4-1.8-9.3c-4.1-4.8-8.3-9.4-12.8-14c-15.5-15.8-33.8-27.7-53.3-37.4
		c-28.4-14-58.4-23.9-89.2-31.3c-25.8-6.1-52-9.7-78.2-13c-20.5-2.6-41.2-3-61.7-5.1c-15.1-1.5-30.1-3.6-45.3-2.6
		c-30.6,1.9-61.1,3.6-91.7,5c-23.6,1.1-46.9,5.3-70.2,9.6c-26.2,4.8-52.8,6.7-78.9,12.2c-17.7,3.8-35.4,8-53.1,11.7
		c-27.3,5.8-54.7,11.5-81.6,18.9c-29.1,7.9-57.7,17.2-86.8,24.9c-25.2,6.7-51,11.3-75.9,19.3c-13.9,4.5-28.2,7.8-42.8,9.7
		c-5.2,0.6-3.3,5-4.6,7.6c-0.9,1.8-0.1,3,1.9,3.8c18.8,7.9,36.1,18.4,54.1,27.8c7.5,3.9,15,5.8,23.4,5.5c13.1-0.5,26.3-0.5,39.4-0.7
		c21.8-0.2,43.6,1.5,65.4,1.1c39.1-0.7,78.2-1.6,117.3-1.6c31.5,0.1,62.9,2.4,94.1,6.6c26.9,3.6,53.4,9.4,79.2,17.8
		c34.3,11.1,68.6,21.8,100.2,40.2c22.5,13.1,46,24.7,68.1,38.5c6.1,3.8,6,3.6,11.4-1.4c5.8-5.5,10.9-11.6,16.6-17.2
		c11.5-11.3,17.8-25.1,15.3-41.9c-0.5-3.3-1.6-6-5-7.4c-7-3-13.9-6.4-21-9.2c-48.5-18.7-97.9-34.4-149.1-43.6
		c-30.8-5.5-62-8.6-93.2-11.1c-30.9-2.4-61.8-4.1-92.7-3.7C678.1,150.7,670.5,150.6,662.9,150.6z M433.8,186.5
		c-0.1,0.5-0.2,1.1-0.2,1.6c16.2,8.9,32.3,17.9,48.5,26.7c30.2,16.3,60.2,32.8,88.9,51.5c29.3,19.1,57.6,39.5,86.7,58.9
		c32.6,21.7,63.6,45.5,94.7,69.1c22.7,17.2,42.5,37.8,64.3,56c7.5,6.2,14.4,13.2,21.8,20c4.1-19.1,13.6-34.7,25.6-48.7
		c25-29.1,52.9-55.3,82.7-79.5c19.1-15.5,38.4-30.8,56.9-47c2.3-2,3.3-3.2-0.1-5.4c-17.9-11.3-35.8-22.5-54.9-31.5
		c-14.9-7.1-28.4-16.7-43.6-23.2c-29.2-12.6-59.7-21.6-90.2-30.6c-24.8-7.3-50.3-10.9-76-13.9c-27-3.1-54.1-4-81.1-5
		c-19.3-0.7-38.5,0.7-57.8,1.2c-47.1,1.2-94.2-0.7-141.3-0.3C450.3,186.5,442,186.5,433.8,186.5z M864.8,478.5
		c22.4-1.7,44.2-6.9,65-14.8c45.9-17.6,85.9-44.8,120.6-79.7c8.5-8.6,17-17.4,22.6-28.4c3.1-6.1,2.5-10.4-2.2-15.5
		c-2.1-2.3-4.6-4.3-7-6.4c-16.1-13.7-32.9-26.5-50.7-38c-2-1.3-3.8-2.1-6.1,0.1c-15.4,14.2-31.7,27.5-48.2,40.4
		c-25.4,19.9-49.1,41.9-71.8,64.9c-12.7,12.9-25.5,25.9-34.3,42c-4.2,7.7-9,15.2-10.5,24.1c-0.6,3.9,0.4,6.2,4.1,7.9
		C852.2,478,858.4,478.8,864.8,478.5z M311.9,137.6c9.6,15.2,23.4,24.7,39.9,30.4c1.4,0.5,2.3,0,2.2-1.6c-0.3-7.4,2.3-14.4,2.9-21.6
		c0.3-2.8-0.1-4.2-3.6-4C339.5,141.6,325.6,142.7,311.9,137.6z M417.5,182.1c-6.8-3.6-13.7-7.1-20.5-10.7
		c-10.9-5.8-21.6-11.7-32.7-17.1c-4.6-2.2-5.9-0.6-6.1,3.6c-0.2,2.8-0.2,5.6-0.4,8.5c-0.3,2.7,1,3.9,3.4,4.6
		c10.7,3.2,21.3,6.6,32.2,9.1C401.2,181.8,409.1,182.9,417.5,182.1z"/>
	<path d="M187.9,67.6c2.2-1,3.4,0.9,4.7,1.8c12,8.6,23.9,17.3,35.8,26.1c4,3,6.9,4.7,11.5,0c6-6.3,12.9-4,15.6,4.3
		c0.9,2.6-1.2,4.3-2.4,6.2c-1.3,2-4.1,3.4-1.8,6.6c0.9,1.3-0.8,2.8-2.2,2c-2.9-1.7-4.2,0.3-5.9,1.7c-2.4,2-4.8,4.1-7.9,5.1
		c-2.7,0.9-5.1,0.3-6.8-1.7c-1.6-1.8-2.3-4-1-6.5c0.8-1.5,1.2-3.1,1.9-4.6c3.3-6.7,3.3-6.6-2.9-11.2c-12.5-9.2-25-18.6-37.5-27.9
		C188.3,69.2,187.6,68.7,187.9,67.6z M231.1,115.1c0.2,2.7,2.5,3,4.5,1.9c6.2-3.4,11-8.4,15-14.2c1.4-2-0.3-3.4-1.4-4.8
		c-1-1.3-2-2.5-4.1-1.6C240.7,98.2,231.4,110.1,231.1,115.1z"/>
	<path d="M276.4,76c-14.4-1.2-28.3-7.9-41.9-15.4c-4.9-2.7-9-6.2-12.2-10.8c-0.8-1.2-2.7-2.4-1.2-3.7c1.7-1.5,2.5,0.8,3.4,1.7
		c14.6,15.3,33.2,22,53.4,25.1c3.8,0.6,7.6-0.5,11.3-1.5c0.9-0.2,2.1-1,2.6,0.2c0.6,1.5-0.8,2-1.8,2.4C286.1,75.4,282,75.8,276.4,76
		z"/>
	<path d="M170.8,97.2c0.5-9.1,4.9-16,12.6-20.7c7.4-4.5,15.6,2.7,17.7,8.1c0.4,0.9,0.3,1.7-0.5,2.1c-1,0.6-1.9,0.3-2.5-0.8
		c-0.4-0.7-0.7-1.5-1.1-2.2c-3.9-6-11.4-6.8-16.1-1.4c-3.9,4.5-6.5,9.6-6.3,15.8c0.2,6,2.4,8.8,8.4,9.6c1.1,0.2,2.6-0.5,2.6,1.4
		c-0.1,1.3-1.3,1.8-2.5,2c-4.2,0.7-7.5-1-9.8-4.4C171.3,103.9,170.6,100.7,170.8,97.2z"/>
	<path d="M279.8,164.5c0.2,3.5-1.8,6.6-4.2,9.4c-4.3,5.2-9.5,9.3-16.3,10.8c-1.4,0.3-2.9,0.3-3.1-1.5c-0.1-1.4,1.1-1.8,2.4-2
		c6.6-1.4,11.1-5.7,15.3-10.5c2.1-2.5,3.2-5.7,2.1-8.8c-1.3-3.3-4.7-3.2-7.7-3c-1.2,0.1-3.1,0.7-3.3-1.2c-0.3-1.9,1.8-1.7,2.9-2
		C274,154.1,279.8,158.2,279.8,164.5z"/>
	<path d="M363.5,211.7c-5.6-0.5-11.8-1.9-16.7-6.7c-1-1-2.5-2.4-1-3.8c1.5-1.4,2.1,0.7,3,1.4c8.1,5.8,16.7,7.6,26,2.8
		c1.1-0.6,2.4-2,3.4-0.4c1.1,1.8-0.9,2.5-2,3.3C372.7,210.9,368.6,211.3,363.5,211.7z"/>
	<path d="M323.9,233c-7.5-0.6-14.1-5.2-19.2-12.2c-0.8-1.1-1.6-2.6-0.3-3.5c1.4-1,2.3,0.6,3.1,1.6c5.2,6.7,11.7,11.1,20.6,10.8
		c1.1,0,2.2,0.1,2.4,1.2c0.3,1.5-0.9,2-2.1,2.1C327.3,233,326.3,233,323.9,233z"/>
	<path d="M279.7,131.5c0.1-0.8,0.1-1.7,0.2-2.5c0.2-1.1-0.1-2.7,1.6-2.5c1.3,0.1,1.1,1.5,1.1,2.4c-0.2,8.7,2.1,16.4,9.3,22
		c0.7,0.5,1.1,1.4,0.3,2.1c-0.8,0.8-1.9,0.6-2.7,0c-2.8-2.2-4.8-5.1-6.4-8.1C280.7,140.8,279.9,136.2,279.7,131.5z"/>
	<path d="M343.2,221.3c-0.7,1.4-1.7,1.5-2.9,1.2c-4.2-1.1-10.2-7.8-10.8-12.1c-0.1-0.9-0.3-1.7,0.5-2.2c0.9-0.6,1.7-0.2,2,0.6
		c2,5.2,5.8,8.7,10.5,11.4C342.8,220.4,342.9,221,343.2,221.3z"/>
	<path d="M284.3,64.9c-1.5-0.3-3.7,0.7-3.7-1.6c0-1.9,2.1-1.1,3.2-1.3c4.8-0.7,9.4-1.7,13.5-4.8c0.9-0.7,2.4-2,3.3-0.2
		c0.7,1.3-0.9,1.9-1.7,2.6C294.6,63.3,289.5,64.3,284.3,64.9z"/>
	<path d="M209.9,72.9c-0.4-0.3-1-0.5-1.1-0.8c-0.1-0.6-0.1-1.4,0.2-1.8c3.8-4.8,7.1-10.1,11.5-14.3c0.6-0.6,1.4-1,2.2-0.5
		c1,0.6,0.5,1.4-0.1,2.1c-3.9,4.8-7.7,9.6-11.6,14.3C210.9,72.2,210.4,72.5,209.9,72.9z"/>
	<path d="M236,175.3c-1.2-2.8-4.5-1.9-4.4-4.7c1.2-1.2,2.5-0.4,3.7-0.2c1.9,0.3,4.6,0.3,4.4,2.9c-0.2,2.9-2.2,5-4.9,6.2
		c-0.4,0.2-1.3-0.2-1.7-0.6c-0.5-0.5-0.5-1.3,0.1-1.8C234.1,176.5,235.2,175.8,236,175.3z"/>
	<path d="M236.1,134c-5-0.2-5.3,2.3-4.6,5.7c0.2,1,0.4,2.2-1.1,2.3c-0.9,0.1-1.3-0.9-1.6-1.7c-1.1-2.8-0.9-6,0.7-8.2
		C232.3,128.4,233.6,133.3,236.1,134z"/>
	<path d="M272.5,142.8c2.1,2.9,3.2,6.5,6.4,8.5c0.7,0.5,1.1,1.3,0.5,2.1c-0.7,1-1.8,0.9-2.6,0.3C273,151.2,271.3,147.6,272.5,142.8z
		"/>
	<path d="M271,82c-0.7,1.9-1.1,4.4-3.5,5.3c-1.1,0.4-1.9-0.9-1.5-1.9c1-2.1,0.7-5.2,3.4-6.1C270.8,78.9,270.9,80.6,271,82z"/>
	<path d="M152.8,230.5c0.3-3.3-0.7-7.5,5-7c1.7,0.2,2.8,0.5,2.2,2.7c-0.5,2.1-1,4.3-0.9,6.4c0.3,3.4-1.7,3.8-4.2,3.8
		c-3,0-2.1-2.3-2.2-3.9C152.7,231.8,152.8,231.1,152.8,230.5z"/>
	<path d="M160.6,255c-2-0.5-2.1-2-1.4-3.1c3.2-5.2,7.8-8.4,13.6-10.3c0.5-0.2,1.4,0.1,1.7,0.4c0.5,0.5,0.2,1.3-0.5,1.7
		c-4.8,2.8-9.2,6-12.3,10.6C161.5,254.7,160.9,254.9,160.6,255z"/>
	<path d="M149.6,229c-0.5,3,1.5,7.1-2.8,7.4c-3.8,0.3-3.1-3.6-3.1-6c0-2.9,0.7-6.2,4.3-6C152,224.6,148.6,227.8,149.6,229z"/>
	<path d="M139.9,247.3c4.5,1.4,8,3.9,10.3,8.1c0.5,0.9,0.6,2-0.5,2.6c-0.8,0.5-1.8,0.3-2.3-0.4c-2.4-3.3-5.1-6.1-8.7-8.1
		c-0.4-0.2-0.7-1.2-0.5-1.7C138.4,247.2,139.2,247.1,139.9,247.3z"/>
	<path d="M1172.2,700.4c-0.2,1.9-1.7,3.7-4,3.5c-2-0.1-3.7-1.5-3.4-4.1c0.3-2.4,1.5-4.4,3.8-4.5
		C1171.1,695.3,1172,697.5,1172.2,700.4z"/>
	<path d="M1154.2,694.1c0,2.6-1.1,4-3.2,4.1c-2.3,0.1-2.3-2-2.4-3.6c-0.2-2,1.3-3.2,3-3.4C1153.6,691,1154,692.8,1154.2,694.1z"/>
</g>
</svg>
