<svg width="1024" height="1024" viewBox="0 0 1024 1024" fill="none" xmlns="http://www.w3.org/2000/svg">
<g clip-path="url(#clip0_206_8)">
<rect width="1024" height="1024" rx="48" fill="#FFECE8"/>
<rect width="1024" height="1024" rx="48" fill="#FFECE8"/>
<path d="M409.55 644.45C404.15 644.45 399.65 643.1 395.6 640.85C391.55 638.6 387.05 634.55 381.65 628.25L259.25 495.05L352.4 411.35C365.9 399.65 375.8 392 382.1 388.85C388.4 385.7 395.15 383.9 403.25 383.45L415.85 383V369.05C400.1 369.5 388.85 369.95 381.65 369.95C374.45 369.95 367.7 369.95 361.4 369.95C355.1 369.95 348.8 369.95 341.6 369.95C334.4 369.95 322.7 369.5 306.5 369.05V383L327.2 384.35C330.8 384.8 333.5 385.7 335.3 386.6C337.1 387.5 338 389.3 338 391.1C338 393.35 336.65 396.05 334.85 398.75C332.6 401.9 329.45 405.5 325.4 409.55L233.6 495.5C230.9 498.2 228.2 500 225.5 500.9C222.8 501.8 218.75 502.7 213.8 502.7V422.6C213.8 405.95 214.7 395.6 216.95 391.55C219.2 387.5 225.5 385.25 235.4 384.35L254.75 383V369.05C240.8 369.5 229.1 369.95 219.65 369.95C209.75 369.95 200.75 369.95 192.65 369.95C184.55 369.95 175.55 369.95 166.1 369.95C156.2 369.95 144.5 369.5 131 369.05V383L150.35 384.35C160.25 385.25 166.1 387.5 168.35 391.55C170.6 395.6 171.95 405.95 171.95 422.6V606.2C171.95 623.3 170.6 633.65 168.35 637.7C166.1 641.75 160.25 644 150.35 644.45L131 645.8V659.75C144.5 659.75 156.2 659.3 166.1 659.3C175.55 659.3 184.55 658.85 193.1 658.85C201.2 658.85 209.75 659.3 219.65 659.3C229.1 659.3 240.8 659.75 254.75 659.75V645.8L235.4 644.45C225.5 644 219.2 641.75 216.95 637.7C214.7 633.65 213.8 623.3 213.8 606.2V512.6C217.85 513.5 221.45 515.3 225.05 517.55C228.65 520.25 233.6 525.2 240.35 532.4L329 633.65C329.9 635 330.35 636.35 330.8 637.25C331.25 638.15 331.7 639.05 331.7 639.95C331.7 641.75 330.8 642.65 329.9 643.55C328.55 644.45 326.75 644.9 324.95 644.9L300.65 645.8V659.75C323.15 659.75 338.9 659.3 347 659.3C355.1 659.3 362.3 658.85 369.05 658.85C376.25 658.85 384.35 659.3 393.35 659.3C401.9 659.3 414.95 659.75 432.05 659.75V645.8L409.55 644.45Z" fill="black"/>
<path d="M881.414 569.75C872.864 597.65 862.064 617 849.014 627.8C835.514 638.6 815.714 644 788.714 644C766.664 644 750.464 641.3 740.114 635.45C729.764 630.05 724.814 621.05 724.814 609.35V517.1L784.214 518C790.514 518.45 795.014 520.7 797.714 524.75C800.414 528.8 802.214 537.35 803.564 549.95L804.464 562.1H817.964C817.964 559.4 817.514 556.7 817.514 553.55C817.514 550.85 817.514 546.35 817.514 540.5C817.064 531.95 816.614 525.65 816.614 521.6C816.614 517.55 816.614 513.5 816.614 509.9C816.614 506.3 816.614 502.7 816.614 498.65C816.614 494.6 817.064 488.3 817.514 479.3C817.514 473.9 817.514 469.4 817.514 466.7C817.514 464 817.964 460.85 817.964 458.15H804.464L803.564 470.3C802.664 483.35 800.864 491.9 798.164 495.5C795.464 499.55 790.514 501.8 784.214 501.8L724.814 502.7V489.65C724.814 467.15 724.814 448.25 725.264 432.95C725.264 417.65 725.714 402.35 726.614 387.95C733.814 387.05 741.464 386.6 750.014 386.15C758.564 385.7 767.114 385.25 775.664 385.25C789.164 385.25 800.414 386.15 809.414 387.95C818.414 389.75 825.614 392.9 831.914 396.95C837.314 401.45 842.264 407.3 846.764 414.5C850.814 421.7 854.864 432.5 859.364 446.45L869.264 444.2C867.914 436.55 867.014 428.9 866.114 420.8C865.214 412.7 863.864 394.25 861.614 365C854.414 366.35 844.064 367.25 829.664 368.15C815.264 369.05 797.714 369.05 776.114 369.05H639.314V383L662.264 384.8C669.914 385.7 674.864 386.6 677.564 388.4C679.814 390.2 681.614 392.9 682.514 396.5C682.964 398.75 683.414 401.45 683.414 405.05C683.414 408.65 683.864 414.5 683.864 422.6V606.2C683.864 623.3 682.514 633.65 680.264 637.7C678.014 641.75 672.164 644 662.264 644.45L642.914 645.8V659.75C661.814 659.75 679.814 659.3 696.014 659.3C712.214 659.3 728.414 658.85 744.614 658.85C757.214 658.85 771.164 659.3 787.364 659.3C803.564 659.3 833.714 659.75 878.714 659.75C879.614 651.2 881.414 636.35 885.014 615.65C888.614 594.95 891.314 580.1 893.114 572L881.414 569.75Z" fill="black"/>
<path d="M619.004 563C614.754 568.25 610.504 572 606.504 574C602.504 576.25 597.754 577.25 592.504 577.25C586.504 577.25 581.004 575.5 576.254 571.75C571.504 568 566.004 560.5 559.504 549.5C559.004 549 558.754 548.5 558.504 548L557.504 545.75C556.754 545 556.254 544.25 556.004 543.75C555.754 543.25 555.504 542.75 555.254 542.25C559.254 536.5 563.754 530 568.504 522.5C573.254 515 580.504 503.5 590.004 487.75C591.254 485.75 593.004 484.25 595.004 483C597.004 482 599.004 481.25 601.504 481L616.254 479.75V471.75C614.754 471.75 613.254 472 611.754 472C610.004 472 607.504 472 604.504 472C598.004 472.25 593.004 472.5 590.004 472.5C586.754 472.5 583.754 472.5 581.254 472.5C577.004 472.5 571.754 472.5 565.504 472.25C559.004 472 555.504 471.75 555.004 471.75V480.25L566.504 481C569.254 481.25 571.254 481.75 572.754 482.75C574.254 483.75 575.004 485 575.004 486.5C575.004 487 574.754 487.25 574.754 487.75L574.004 490C570.004 498.5 566.254 506.5 562.254 514C558.254 521.5 554.254 528.25 550.254 534.25C547.254 529.75 544.004 525.5 541.004 521.75C537.754 518.25 534.254 514.75 530.754 511.25C528.754 509.75 526.754 508 524.754 506.25C522.504 504.5 520.004 502.5 517.504 500.25C515.504 499 513.004 497.25 510.004 495C506.754 492.75 504.504 491.25 503.504 490.25C512.254 487.5 519.254 483.25 524.504 477.5C529.504 472 532.254 465.5 532.254 458C532.254 450 528.754 443 522.254 437.5C515.504 432 507.754 429 499.004 429C488.254 429 479.254 432.5 472.254 439C465.004 445.5 461.504 453.75 461.504 463.5C461.504 469.5 462.754 475.25 465.754 480.25C468.504 485.5 473.504 491 480.504 496.75C468.504 503.5 459.004 511.5 452.254 520.5C445.504 529.75 442.254 539.5 442.254 549.75C442.254 563.5 446.504 574.5 455.504 583C464.254 591.5 475.504 595.5 489.254 595.5C497.004 595.5 505.254 592.75 514.004 586.75C522.504 581 532.004 572 542.254 559.5C544.254 563.5 546.004 567 547.504 570.5C548.754 574 549.754 577.5 550.754 581C554.254 586 558.504 589.75 563.504 592C568.504 594.5 574.504 595.5 582.004 595.5C590.504 595.5 598.504 592.75 606.254 587.25C613.754 581.75 619.504 575 623.504 566.75L619.004 563ZM497.254 438.75C502.754 438.75 507.004 440.75 510.254 444.25C513.504 448 515.254 452.75 515.254 458.25C515.254 464.75 513.754 470.75 511.004 475.75C508.254 480.75 504.254 484.5 499.254 487C492.004 481.75 487.004 476.75 484.004 472.25C481.004 467.75 479.754 463.25 479.754 458.25C479.754 452.5 481.254 447.75 484.754 444.25C488.004 440.75 492.254 438.75 497.254 438.75ZM485.504 501C498.004 510.75 505.754 517 509.004 519.75C512.004 522.75 515.004 525.5 518.004 528.25C522.504 533 526.504 537.25 529.504 540.75C532.504 544.5 535.004 548 537.254 551.5C530.504 559.25 523.754 565 517.254 568.75C510.754 572.75 504.254 574.5 497.754 574.5C488.004 574.5 479.754 571.25 473.004 564.75C466.254 558.25 463.004 550 463.004 540C463.004 532 465.004 524.75 469.004 517.75C473.004 511 478.504 505.5 485.504 501Z" fill="black"/>
</g>
<defs>
<clipPath id="clip0_206_8">
<rect width="1024" height="1024" rx="48" fill="white"/>
</clipPath>
</defs>
</svg>
